<?xml version="1.0" encoding="utf-8"?>
<!-- Generator: Adobe Illustrator 26.0.3, SVG Export Plug-In . SVG Version: 6.00 Build 0)  -->
<svg version="1.1" id="Livello_1" xmlns="http://www.w3.org/2000/svg" xmlns:xlink="http://www.w3.org/1999/xlink" x="0px" y="0px"
	 viewBox="0 0 736.3 518.3" style="enable-background:new 0 0 736.3 518.3;" xml:space="preserve">
<style type="text/css">
	.st0{fill:#FBF5EB;}
	.st1{opacity:0.6;}
	.st2{fill:#FFB533;}
	.st3{fill:none;stroke:#E22FFF;stroke-width:6;stroke-linecap:round;stroke-miterlimit:10;}
	.st4{fill:#E22FFF;}
	.st5{fill:#8CC63F;}
	.st6{fill:none;stroke:#E22FFF;stroke-width:6;stroke-miterlimit:10;}
	.st7{fill:none;stroke:#E22FFF;stroke-width:4;stroke-miterlimit:10;}
</style>
<rect x="0" class="st0" width="736.3" height="518.3"/>
<g>
	<g class="st1">
		<circle class="st2" cx="483.2" cy="313.6" r="145.2"/>
		<g>
			<path d="M427.1,326.9h-16.3v9.4h20.1v6.3h-20.1v18.9H404v-18.9h-20.9v-6.3H404v-9.4h-15.7v-34.2h15.6v-9.4h-19.7V277h19.7v-11.4
				l8.8,0.6c-0.1,0.7-0.6,1.2-2,1.3v9.5h19.2v6.3h-19.2v9.4H427v9.3c7-8.1,12.7-22.2,16.1-36.2l8.6,2.3c-0.2,0.7-1,1.1-2.3,1.1
				c-1.1,4.1-2.4,8.3-3.9,12.4h33.2v6.5H443c-3.2,7.4-7,14-11.2,19c-1-1.3-3.3-3.7-4.7-4.8L427.1,326.9L427.1,326.9z M394.6,298.4
				v8.6h26v-8.6H394.6z M394.6,312.4v8.9h26v-8.9H394.6z M471.7,306.1c-0.1,0.5-0.4,1.1-0.8,1.6c-28,33.7-30,38.7-30,42
				c0,2.4,2.2,3.3,5.7,3.3h21.8c3.5,0,4.3-1.8,4.6-14.9c1.8,1,4.2,2,6.2,2.4c-0.8,16.8-3.3,19.5-10.9,19.5h-21.7
				c-9,0-12.9-3.4-12.9-9.2c0-4.3,1-10,25.4-39.9h-23.6v-6.3h30l1.6-0.2L471.7,306.1z"/>
			<path d="M510.4,301.9c3.3,3.2,11.4,11.8,13.4,14.2l-4.2,5.5c-1.8-2.7-5.8-7.9-9.2-12.1v51.8h-6.7v-51.8
				c-4,12.6-9.6,24.8-15.2,32.2c-0.8-2-2.6-4.6-3.8-6.3c7.2-9,14.5-25.8,18-40.5h-15.5v-6.6h16.6v-22.7l8.7,0.6
				c-0.1,0.7-0.6,1.1-2,1.3v20.7h14.4v6.6h-14.5V301.9z M563.6,281.7c-0.3,0.7-1.1,1-2.4,1c-2.2,5.2-4.6,10.3-7.5,15l3.1,0.8
				c-0.1,0.5-0.7,1.1-2.1,1.2v61.7h-6.8v-55c-7,9.6-15.5,17.8-24.8,23.9c-0.9-1.5-3.1-4.2-4.5-5.5c15-9.3,28-25.2,35.7-43.8h-31.6
				v-6.6h59v6.6h-19.8L563.6,281.7z M578.4,328.7c-4.5-6.5-14.5-16.5-22.7-23.6l4.6-4.1c8.1,6.9,18.2,16.6,23,22.9L578.4,328.7z"/>
		</g>
	</g>
	<g>
		<line class="st3" x1="93.7" y1="460.9" x2="642.5" y2="460.9"/>
		<g>
			<path class="st4" d="M156.5,443.9l-28.2-42v42H98v-96.8h30.3v40.7l27.8-40.7h34.3L157,393.4l35.5,50.4L156.5,443.9L156.5,443.9z"
				/>
			<path class="st4" d="M263.3,429.3H231l-4.8,14.6h-31.9l35.4-96.8h35l35.3,96.8h-32L263.3,429.3z M255.9,406.5l-8.8-26.9
				l-8.8,26.9H255.9z"/>
			<path class="st4" d="M399.7,443.9h-30.4l-32.1-48.7v48.7h-30.3v-96.8h30.4l32.1,49.5v-49.5h30.4v96.8H399.7z"/>
			<path class="st4" d="M488.3,397c-2.8,5-7,8.9-12.5,11.8s-12.2,4.4-20,4.4h-12V444h-30.4v-96.8h42.4c11.9,0,20.9,3,27.3,9
				c6.3,6,9.5,14.1,9.5,24.2C492.5,386.5,491.1,392,488.3,397z M461.8,380.3c0-5.9-3.1-8.9-9.4-8.9h-8.6v17.8h8.6
				C458.6,389.2,461.8,386.3,461.8,380.3z"/>
			<path class="st4" d="M564.2,429.3h-32.3l-4.8,14.6h-31.9l35.4-96.8h35l35.3,96.8h-32L564.2,429.3z M556.8,406.5l-8.8-26.9
				l-8.8,26.9H556.8z"/>
			<path class="st4" d="M638.1,347.1v96.8h-30.3v-96.8L638.1,347.1L638.1,347.1z"/>
		</g>
		<line class="st3" x1="93.7" y1="330.1" x2="642.5" y2="330.1"/>
		<g>
			<g>
				<path d="M150.8,308.2c1.2,1.6,1.9,3.3,1.9,5.3c0,1.7-0.4,3.2-1.3,4.6s-2.1,2.4-3.8,3.2c-1.7,0.8-3.6,1.2-5.8,1.2h-13.3v-33.4
					h12.7c2.3,0,4.2,0.4,5.9,1.1c1.6,0.8,2.9,1.8,3.7,3.1c0.8,1.3,1.2,2.7,1.2,4.3c0,1.9-0.5,3.5-1.5,4.8s-2.4,2.2-4.1,2.8
					C148,305.7,149.5,306.7,150.8,308.2z M133.9,303.2h6.8c1.8,0,3.2-0.4,4.2-1.2c1-0.8,1.5-2,1.5-3.5s-0.5-2.7-1.5-3.5
					c-1-0.9-2.4-1.3-4.2-1.3h-6.8V303.2z M145.6,316.7c1.1-0.9,1.6-2.1,1.6-3.7s-0.6-2.9-1.7-3.9c-1.1-1-2.6-1.4-4.5-1.4h-7.1v10.4
					h7.4C143.1,318.1,144.6,317.6,145.6,316.7z"/>
				<path d="M164.1,293.6v9.8h11.5v4.5h-11.5v10.2h13v4.5h-18.4v-33.4h18.4v4.5L164.1,293.6L164.1,293.6z"/>
				<path d="M211.2,322.6h-5.5l-16.5-24.9v24.9h-5.5v-33.4h5.5l16.5,24.9v-24.9h5.5V322.6L211.2,322.6z"/>
				<path d="M247.1,289.2l-12.5,33.4h-6.3l-12.6-33.4h5.9l9.9,27.7l9.9-27.7H247.1z"/>
				<path d="M257.2,293.6v9.8h11.5v4.5h-11.5v10.2h13v4.5h-18.4v-33.4h18.4v4.5L257.2,293.6L257.2,293.6z"/>
				<path d="M304.2,322.6h-5.5l-16.5-24.9v24.9h-5.5v-33.4h5.5l16.5,24.9v-24.9h5.5V322.6z"/>
				<path d="M316.9,289.2v21.3c0,2.5,0.7,4.4,2,5.7s3.2,1.9,5.5,1.9c2.4,0,4.3-0.6,5.6-1.9s2-3.2,2-5.7v-21.3h5.5v21.2
					c0,2.7-0.6,5-1.8,6.9c-1.2,1.9-2.8,3.3-4.8,4.2c-2,0.9-4.2,1.4-6.6,1.4s-4.6-0.5-6.5-1.4c-2-0.9-3.5-2.3-4.7-4.2
					c-1.1-1.9-1.7-4.2-1.7-6.9v-21.2H316.9L316.9,289.2z"/>
				<path d="M366.1,289.2v4.5h-8.9v28.9h-5.5v-28.9h-8.9v-4.5H366.1z"/>
				<path d="M377.1,289.2v33.4h-5.5v-33.4H377.1z"/>
			</g>
			<g>
				<path d="M583,297.5v25h-4.1v-25H583z"/>
				<path d="M609,322.6h-4.1l-12.4-18.7v18.7h-4.1v-25.1h4.1l12.3,18.6v-18.6h4.1L609,322.6L609,322.6z"/>
			</g>
		</g>
	</g>
</g>
<path class="st5" d="M-2227.9-101.7l-5.8-0.3C-2231.7-102-2229.8-101.9-2227.9-101.7z"/>
<path class="st0" d="M-2080.5-101.7c0,0-53.4,375.4,42.7,471.5s154.7,20.2,300.2,49s200.2,109.4,350,109.4s161.3-255.8,161.3-255.8
	v-374.1H-2080.5z"/>
<line class="st6" x1="-1944" y1="213.3" x2="-1395.2" y2="213.3"/>
<line class="st6" x1="-1944" y1="344" x2="-1395.2" y2="344"/>
<g>
	<g>
		<path d="M-1780.1,65.1l-15.5,52.2h-9.7l-11-39.5l-11.6,39.5l-9.6,0.1l-14.8-52.2h9.1l10.8,42.5l11.7-42.5h9.6l10.9,42.2l10.9-42.2
			h9.2V65.1z"/>
		<path d="M-1764.5,72v15.3h18v7h-18v16h20.3v7h-28.8V65h28.8v7H-1764.5L-1764.5,72z"/>
		<path d="M-1725.2,110.4h17.6v6.9h-26.2V65.1h8.6V110.4L-1725.2,110.4z"/>
		<path d="M-1699.7,77.4c2.4-4.1,5.6-7.2,9.7-9.5s8.5-3.4,13.4-3.4c5.6,0,10.5,1.4,14.8,4.1s7.5,6.6,9.4,11.6h-10.3
			c-1.3-2.8-3.2-4.8-5.6-6.1c-2.4-1.4-5.2-2-8.3-2c-3.4,0-6.5,0.8-9.2,2.3s-4.8,3.8-6.3,6.7s-2.3,6.3-2.3,10.1s0.8,7.2,2.3,10.1
			c1.5,2.9,3.6,5.1,6.3,6.7s5.8,2.4,9.2,2.4c3.2,0,5.9-0.7,8.3-2c2.4-1.4,4.3-3.4,5.6-6.1h10.3c-1.9,5-5.1,8.9-9.4,11.6
			c-4.3,2.7-9.3,4.1-14.8,4.1c-4.9,0-9.4-1.1-13.4-3.4c-4.1-2.3-7.3-5.4-9.7-9.5s-3.6-8.6-3.6-13.7
			C-1703.3,86-1702.1,81.4-1699.7,77.4z"/>
		<path d="M-1632,114.4c-4.1-2.3-7.3-5.4-9.7-9.5s-3.6-8.7-3.6-13.8s1.2-9.7,3.6-13.7s5.6-7.2,9.7-9.5s8.5-3.4,13.4-3.4
			s9.4,1.1,13.5,3.4s7.3,5.4,9.6,9.5s3.5,8.6,3.5,13.7c0,5.1-1.2,9.7-3.5,13.8s-5.6,7.3-9.6,9.5c-4.1,2.3-8.6,3.4-13.5,3.4
			C-1623.5,117.8-1628,116.7-1632,114.4z M-1609.4,108c2.7-1.6,4.8-3.8,6.3-6.8c1.5-2.9,2.3-6.3,2.3-10.2s-0.8-7.2-2.3-10.1
			c-1.5-2.9-3.6-5.1-6.3-6.7c-2.7-1.6-5.8-2.3-9.2-2.3s-6.5,0.8-9.2,2.3s-4.8,3.8-6.3,6.7s-2.3,6.3-2.3,10.1s0.8,7.2,2.3,10.2
			s3.6,5.2,6.3,6.8s5.8,2.4,9.2,2.4S-1612.1,109.6-1609.4,108z"/>
		<path d="M-1528.7,65.1v52.2h-8.6V81.6l-15.9,35.7h-5.9l-16-35.7v35.7h-8.6V65.1h9.2l18.3,40.9l18.2-40.9
			C-1537.8,65.1-1528.7,65.1-1528.7,65.1z"/>
		<path d="M-1508.8,72v15.3h18v7h-18v16h20.3v7h-28.8V65h28.8v7H-1508.8L-1508.8,72z"/>
	</g>
	<g>
		<path d="M-1676.8,147.9v5h-10v32.6h-6.2V153h-10.1v-5L-1676.8,147.9L-1676.8,147.9z"/>
		<path d="M-1663.1,183.5c-2.9-1.6-5.3-3.9-7-6.9s-2.6-6.3-2.6-9.9c0-3.7,0.8-7,2.6-9.9s4-5.2,7-6.9c2.9-1.6,6.2-2.5,9.7-2.5
			s6.8,0.8,9.7,2.5s5.3,3.9,7,6.9c1.7,2.9,2.5,6.2,2.5,9.9s-0.8,7-2.5,9.9s-4,5.2-7,6.9s-6.2,2.5-9.7,2.5
			S-1660.1,185.1-1663.1,183.5z M-1646.7,178.9c1.9-1.1,3.5-2.8,4.6-4.9s1.7-4.6,1.7-7.3s-0.6-5.2-1.7-7.3s-2.6-3.7-4.6-4.8
			c-1.9-1.1-4.2-1.7-6.7-1.7s-4.7,0.6-6.7,1.7c-1.9,1.1-3.5,2.7-4.6,4.8s-1.7,4.5-1.7,7.3s0.6,5.2,1.7,7.3s2.6,3.7,4.6,4.9
			c1.9,1.1,4.2,1.7,6.7,1.7S-1648.7,180-1646.7,178.9z"/>
	</g>
</g>
<g>
	<path class="st4" d="M-1881.1,327l-28.2-42v42h-30.3v-96.8h30.3V271l27.8-40.7h34.3l-33.3,46.3l35.5,50.4L-1881.1,327L-1881.1,327z
		"/>
	<path class="st4" d="M-1774.4,312.4h-32.3l-4.8,14.6h-31.8l35.4-96.8h35l35.3,96.8h-32L-1774.4,312.4z M-1781.8,289.6l-8.8-26.9
		l-8.8,26.9H-1781.8z"/>
	<path class="st4" d="M-1637.9,327h-30.3l-32.1-48.7V327h-30.3v-96.8h30.3l32.1,49.5v-49.5h30.3V327z"/>
	<path class="st4" d="M-1549.4,280.1c-2.8,5-7,8.9-12.5,11.8s-12.2,4.4-20,4.4h-12V327h-30.3v-96.8h42.4c11.8,0,20.9,3,27.3,9
		c6.3,6,9.5,14.1,9.5,24.2C-1545.1,269.6-1546.5,275.1-1549.4,280.1z M-1575.9,263.5c0-5.9-3.1-8.9-9.4-8.9h-8.6v17.8h8.6
		C-1579,272.4-1575.9,269.4-1575.9,263.5z"/>
	<path class="st4" d="M-1473.5,312.4h-32.3l-4.8,14.6h-31.8l35.4-96.8h35l35.3,96.8h-32L-1473.5,312.4z M-1480.9,289.6l-8.8-26.9
		l-8.8,26.9H-1480.9z"/>
	<path class="st4" d="M-1399.6,230.3V327h-30.3v-96.8L-1399.6,230.3L-1399.6,230.3z"/>
</g>
<path class="st0" d="M-2965.2-101.7c0,0-53.4,375.4,42.7,471.5c96.1,96.1,154.7,20.2,300.2,49s200.2,109.4,350,109.4
	S-2111,272.4-2111,272.4v-374.1H-2965.2z"/>
<line class="st7" x1="-2824.4" y1="213.2" x2="-2284.3" y2="213.2"/>
<line class="st7" x1="-2824.4" y1="347.9" x2="-2284.3" y2="347.9"/>
<g>
	<path d="M-2664.9,19.3l-15.5,52.2h-9.7l-11-39.5l-11.6,39.5l-9.6,0.1l-14.8-52.2h9.1l10.8,42.5l11.7-42.5h9.6l10.9,42.2l10.9-42.2
		C-2674,19.3-2664.9,19.3-2664.9,19.3z"/>
	<path d="M-2649.2,26.2v15.3h18v7h-18v16h20.3v7h-28.8V19.2h28.8v7H-2649.2z"/>
	<path d="M-2609.9,64.6h17.6v6.9h-26.2V19.3h8.6L-2609.9,64.6L-2609.9,64.6z"/>
	<path d="M-2584.4,31.6c2.4-4.1,5.6-7.2,9.7-9.5c4.1-2.3,8.5-3.4,13.4-3.4c5.6,0,10.5,1.4,14.8,4.1s7.5,6.6,9.4,11.6h-10.3
		c-1.4-2.8-3.2-4.8-5.6-6.2s-5.2-2-8.3-2c-3.4,0-6.5,0.8-9.2,2.3s-4.8,3.8-6.3,6.7c-1.5,2.9-2.3,6.3-2.3,10.1s0.8,7.2,2.3,10.1
		s3.6,5.1,6.3,6.7s5.8,2.4,9.2,2.4c3.1,0,5.9-0.7,8.3-2c2.4-1.3,4.3-3.4,5.6-6.2h10.3c-1.9,5-5.1,8.9-9.4,11.6
		c-4.3,2.7-9.3,4.1-14.8,4.1c-4.9,0-9.4-1.1-13.4-3.4c-4.1-2.3-7.3-5.4-9.6-9.5c-2.4-4.1-3.6-8.6-3.6-13.7
		C-2588,40.2-2586.8,35.6-2584.4,31.6z"/>
	<path d="M-2516.8,68.6c-4.1-2.3-7.3-5.4-9.7-9.5s-3.6-8.7-3.6-13.8c0-5.1,1.2-9.7,3.6-13.7c2.4-4.1,5.6-7.2,9.7-9.5
		c4.1-2.3,8.5-3.4,13.4-3.4s9.4,1.1,13.5,3.4s7.3,5.4,9.6,9.5c2.4,4.1,3.5,8.6,3.5,13.7s-1.2,9.7-3.5,13.8c-2.4,4.1-5.6,7.3-9.6,9.5
		c-4.1,2.3-8.6,3.4-13.5,3.4C-2508.2,72-2512.7,70.9-2516.8,68.6z M-2494.1,62.2c2.7-1.6,4.8-3.8,6.3-6.8c1.5-2.9,2.3-6.3,2.3-10.2
		s-0.8-7.2-2.3-10.1s-3.6-5.1-6.3-6.7s-5.8-2.3-9.2-2.3s-6.5,0.8-9.2,2.3s-4.8,3.8-6.3,6.7c-1.5,2.9-2.3,6.3-2.3,10.1
		s0.8,7.2,2.3,10.2s3.6,5.2,6.3,6.8s5.8,2.4,9.2,2.4S-2496.8,63.8-2494.1,62.2z"/>
	<path d="M-2413.4,19.3v52.2h-8.6V35.8l-15.9,35.7h-5.9l-16-35.7v35.7h-8.6V19.3h9.2l18.3,40.9l18.2-40.9H-2413.4z"/>
	<path d="M-2393.6,26.2v15.3h18v7h-18v16h20.3v7h-28.8V19.2h28.8v7H-2393.6z"/>
	<path d="M-2564.7,109.4v7h-13.9v45.2h-8.6v-45.2h-14v-7H-2564.7L-2564.7,109.4z"/>
	<path d="M-2545.6,158.6c-4.1-2.3-7.3-5.4-9.7-9.5s-3.6-8.7-3.6-13.8s1.2-9.7,3.6-13.7c2.4-4.1,5.6-7.2,9.7-9.5
		c4.1-2.3,8.5-3.4,13.4-3.4s9.4,1.1,13.5,3.4c4.1,2.3,7.3,5.4,9.6,9.5c2.4,4.1,3.5,8.6,3.5,13.7c0,5.1-1.2,9.7-3.5,13.8
		s-5.6,7.3-9.6,9.5c-4.1,2.3-8.6,3.4-13.5,3.4C-2537.1,162.1-2541.6,160.9-2545.6,158.6z M-2523,152.3c2.7-1.6,4.8-3.8,6.3-6.8
		c1.5-2.9,2.3-6.3,2.3-10.2s-0.8-7.2-2.3-10.1c-1.5-2.9-3.6-5.1-6.3-6.7c-2.7-1.6-5.8-2.3-9.2-2.3s-6.5,0.8-9.2,2.3
		s-4.8,3.8-6.3,6.7s-2.3,6.3-2.3,10.1s0.8,7.2,2.3,10.2s3.6,5.2,6.3,6.8s5.8,2.4,9.2,2.4S-2525.7,153.9-2523,152.3z"/>
</g>
<g>
	<path class="st4" d="M-2765.8,327l-28.2-42v42h-30.4v-96.8h30.4V271l27.8-40.7h34.3l-33.4,46.3l35.5,50.4L-2765.8,327L-2765.8,327z
		"/>
	<path class="st4" d="M-2659.1,312.4h-32.3l-4.8,14.6h-31.9l35.4-96.8h35l35.3,96.8h-32L-2659.1,312.4z M-2666.5,289.6l-8.8-26.9
		l-8.8,26.9H-2666.5z"/>
	<path class="st4" d="M-2522.7,327h-30.4l-32.1-48.7V327h-30.4v-96.8h30.4l32.1,49.5v-49.5h30.4V327z"/>
	<path class="st4" d="M-2434.1,280.1c-2.8,5-7,8.9-12.5,11.8s-12.2,4.4-20,4.4h-12V327h-30.3v-96.8h42.4c11.9,0,20.9,3,27.3,9
		c6.3,6,9.5,14.1,9.5,24.2C-2429.9,269.6-2431.3,275.1-2434.1,280.1z M-2460.6,263.5c0-5.9-3.1-8.9-9.4-8.9h-8.6v17.8h8.6
		C-2463.8,272.4-2460.6,269.4-2460.6,263.5z"/>
	<path class="st4" d="M-2358.2,312.4h-32.3l-4.8,14.6h-31.9l35.4-96.8h35l35.3,96.8h-32L-2358.2,312.4z M-2365.6,289.6l-8.8-26.9
		l-8.8,26.9H-2365.6z"/>
	<path class="st4" d="M-2284.3,230.3V327h-30.4v-96.8L-2284.3,230.3L-2284.3,230.3z"/>
</g>
<path class="st0" d="M-1201.5-99.9c0,0-53.4,375.4,42.7,471.5s154.7,20.2,300.2,49S-658.4,530-508.6,530s161.3-255.8,161.3-255.8
	V-99.9H-1201.5z"/>
<line class="st3" x1="-1056.2" y1="344" x2="-507.4" y2="344"/>
<g>
	<g>
		<path d="M-971.4,155.9l-14,47.3h-8.8l-9.9-35.8l-10.5,35.8l-8.7,0.1l-13.4-47.4h8.2l9.8,38.5l10.6-38.5h8.7l9.9,38.3l9.9-38.3
			H-971.4z"/>
		<path d="M-957.2,162.2v13.9h16.3v6.3h-16.3v14.5h18.4v6.3H-965v-47.4h26.1v6.3L-957.2,162.2L-957.2,162.2z"/>
		<path d="M-921.6,197h16v6.3h-23.8V156h7.8V197z"/>
		<path d="M-898.5,167c2.2-3.7,5.1-6.5,8.8-8.6s7.8-3.1,12.2-3.1c5,0,9.5,1.2,13.4,3.7s6.8,6,8.5,10.5h-9.3
			c-1.2-2.5-2.9-4.4-5.1-5.6s-4.7-1.8-7.5-1.8c-3.1,0-5.9,0.7-8.4,2.1s-4.4,3.4-5.8,6.1s-2.1,5.7-2.1,9.2s0.7,6.6,2.1,9.2
			c1.4,2.6,3.3,4.7,5.8,6.1c2.5,1.4,5.2,2.1,8.4,2.1c2.9,0,5.4-0.6,7.5-1.8c2.2-1.2,3.9-3.1,5.1-5.6h9.3c-1.8,4.5-4.6,8-8.5,10.5
			s-8.4,3.7-13.4,3.7c-4.5,0-8.5-1-12.2-3.1s-6.6-4.9-8.8-8.6c-2.2-3.7-3.2-7.8-3.2-12.5C-901.7,174.9-900.6,170.7-898.5,167z"/>
		<path d="M-837.1,200.6c-3.7-2.1-6.6-4.9-8.8-8.6c-2.2-3.7-3.2-7.9-3.2-12.5s1.1-8.8,3.2-12.4c2.2-3.7,5.1-6.5,8.8-8.6
			s7.8-3.1,12.2-3.1c4.5,0,8.5,1,12.2,3.1s6.6,4.9,8.7,8.6c2.1,3.7,3.2,7.8,3.2,12.4c0,4.6-1.1,8.8-3.2,12.5c-2.1,3.7-5,6.6-8.7,8.6
			c-3.7,2.1-7.8,3.1-12.2,3.1S-833.4,202.7-837.1,200.6z M-816.6,194.8c2.5-1.4,4.4-3.5,5.8-6.1s2.1-5.7,2.1-9.2s-0.7-6.6-2.1-9.2
			c-1.4-2.6-3.3-4.6-5.8-6.1s-5.2-2.1-8.4-2.1s-5.9,0.7-8.4,2.1s-4.4,3.4-5.8,6.1s-2.1,5.7-2.1,9.2s0.7,6.6,2.1,9.2
			c1.4,2.6,3.3,4.7,5.8,6.1s5.2,2.1,8.4,2.1S-819,196.2-816.6,194.8z"/>
		<path d="M-743.3,155.9v47.3h-7.8v-32.4l-14.4,32.4h-5.4l-14.5-32.4v32.4h-7.8v-47.3h8.4l16.6,37.1l16.5-37.1L-743.3,155.9
			L-743.3,155.9z"/>
		<path d="M-725.4,162.2v13.9h16.3v6.3h-16.3v14.5h18.4v6.3h-26.1v-47.4h26.1v6.3L-725.4,162.2L-725.4,162.2z"/>
		<g>
			<circle class="st4" cx="-825" cy="179.5" r="25.4"/>
			<g>
				<path d="M-834.8,181.8h-2.8v1.6h3.5v1.1h-3.5v3.3h-1.2v-3.3h-3.7v-1.1h3.7v-1.6h-2.7v-6h2.7v-1.6h-3.4v-1.1h3.4v-2l1.5,0.1
					c0,0.1-0.1,0.2-0.3,0.2v1.7h3.3v1.1h-3.3v1.6h2.8v1.6c1.2-1.4,2.2-3.9,2.8-6.3l1.5,0.4c0,0.1-0.2,0.2-0.4,0.2
					c-0.2,0.7-0.4,1.5-0.7,2.2h5.8v1.1h-6.2c-0.6,1.3-1.2,2.4-2,3.3c-0.2-0.2-0.6-0.6-0.8-0.9L-834.8,181.8L-834.8,181.8z
					 M-840.4,176.9v1.5h4.5v-1.5H-840.4z M-840.4,179.3v1.6h4.5v-1.6H-840.4z M-827,178.2c0,0.1-0.1,0.2-0.1,0.3
					c-4.9,5.9-5.2,6.8-5.2,7.3c0,0.4,0.4,0.6,1,0.6h3.8c0.6,0,0.8-0.3,0.8-2.6c0.3,0.2,0.7,0.3,1.1,0.4c-0.1,2.9-0.6,3.4-1.9,3.4
					h-3.8c-1.6,0-2.2-0.6-2.2-1.6c0-0.8,0.2-1.8,4.5-7h-4.1v-1.1h5.2h0.3L-827,178.2z"/>
				<path d="M-820.2,177.5c0.6,0.6,2,2.1,2.3,2.5l-0.7,0.9c-0.3-0.5-1-1.4-1.6-2.1v9.1h-1.2v-9.1c-0.7,2.2-1.7,4.3-2.7,5.6
					c-0.1-0.3-0.5-0.8-0.7-1.1c1.3-1.6,2.5-4.5,3.2-7.1h-2.7v-1.1h2.9v-4l1.5,0.1c0,0.1-0.1,0.2-0.3,0.2v3.6h2.5v1.1h-2.5V177.5
					L-820.2,177.5z M-810.9,173.9c0,0.1-0.2,0.2-0.4,0.2c-0.4,0.9-0.8,1.8-1.3,2.6l0.5,0.1c0,0.1-0.1,0.2-0.4,0.2v10.8h-1.2v-9.6
					c-1.2,1.7-2.7,3.1-4.3,4.2c-0.2-0.3-0.5-0.7-0.8-0.9c2.6-1.6,4.9-4.4,6.2-7.6h-5.5v-1.1h10.3v1.1h-3.5H-810.9z M-808.3,182.1
					c-0.8-1.1-2.5-2.9-4-4.1l0.8-0.7c1.4,1.2,3.2,2.9,4,4L-808.3,182.1z"/>
			</g>
		</g>
	</g>
	<g>
		<path d="M-565.5,169.2v4.6h-9.1v29.6h-5.6v-29.6h-9.1v-4.6L-565.5,169.2L-565.5,169.2z"/>
		<path d="M-553,201.5c-2.7-1.5-4.8-3.6-6.3-6.2c-1.6-2.7-2.3-5.7-2.3-9s0.8-6.3,2.3-9c1.6-2.6,3.7-4.7,6.3-6.2s5.6-2.2,8.8-2.2
			s6.2,0.7,8.8,2.2c2.7,1.5,4.8,3.6,6.3,6.2c1.5,2.6,2.3,5.6,2.3,9c0,3.3-0.8,6.3-2.3,9s-3.6,4.8-6.3,6.2c-2.7,1.5-5.6,2.2-8.8,2.2
			C-547.5,203.7-550.4,203-553,201.5z M-538.2,197.3c1.8-1,3.2-2.5,4.2-4.4s1.5-4.1,1.5-6.7c0-2.5-0.5-4.7-1.5-6.6
			c-1-1.9-2.4-3.4-4.2-4.4s-3.8-1.5-6-1.5s-4.3,0.5-6,1.5c-1.8,1-3.1,2.5-4.1,4.4s-1.5,4.1-1.5,6.6s0.5,4.7,1.5,6.7
			c1,1.9,2.4,3.4,4.1,4.4s3.8,1.5,6,1.5S-540,198.3-538.2,197.3z"/>
	</g>
</g>
<g>
	<path class="st4" d="M-993.4,327l-28.2-42v42h-30.3v-96.8h30.3V271l27.8-40.7h34.3l-33.3,46.3l35.5,50.4L-993.4,327L-993.4,327z"/>
	<path class="st4" d="M-886.6,312.4h-32.3l-4.8,14.6h-31.8l35.4-96.8h35l35.3,96.8h-32L-886.6,312.4z M-894,289.6l-8.8-26.9
		l-8.8,26.9H-894z"/>
	<path class="st4" d="M-750.2,327h-30.3l-32.1-48.7V327H-843v-96.8h30.3l32.1,49.5v-49.5h30.3L-750.2,327L-750.2,327z"/>
	<path class="st4" d="M-661.6,280.1c-2.8,5-7,8.9-12.5,11.8s-12.2,4.4-20,4.4h-12V327h-30.3v-96.8h42.4c11.8,0,20.9,3,27.3,9
		c6.3,6,9.5,14.1,9.5,24.2C-657.4,269.6-658.8,275.1-661.6,280.1z M-688.1,263.5c0-5.9-3.1-8.9-9.4-8.9h-8.6v17.8h8.6
		C-691.3,272.4-688.1,269.4-688.1,263.5z"/>
	<path class="st4" d="M-585.7,312.4H-618l-4.8,14.6h-31.8l35.4-96.8h35l35.3,96.8h-32L-585.7,312.4z M-593.1,289.6l-8.8-26.9
		l-8.8,26.9H-593.1z"/>
	<path class="st4" d="M-511.8,230.3V327h-30.4v-96.8L-511.8,230.3L-511.8,230.3z"/>
</g>
<line class="st3" x1="-1056.2" y1="213.3" x2="-507.4" y2="213.3"/>
</svg>
