<svg width="1080" height="884" viewBox="0 0 1080 884" fill="none" xmlns="http://www.w3.org/2000/svg">
<path d="M20 0C8.95429 0 0 8.95431 0 20V664.707C0 668.787 1.2293 672.747 3.82706 675.894C22.4124 698.404 110.182 789.98 299.568 777.68C515.061 763.684 559.902 688.356 819.715 826.911C820.152 827.144 820.534 827.364 820.958 827.621C828.561 832.233 912.388 881.011 1060.21 883.301C1071.15 883.471 1080 874.527 1080 863.58V20C1080 8.95435 1071.05 0 1060 0H20Z" fill="#FBF5EB"/>
<g clip-path="url(#clip0_216_90)">
<path d="M382.239 360.48C381.144 360.59 380.043 360.616 378.944 360.557C378.756 360.536 378.568 360.59 378.421 360.707C378.273 360.823 378.176 360.993 378.153 361.179L376.05 376.907C375.889 378.049 375.42 379.125 374.694 380.023C374.096 380.737 373.651 381.566 373.387 382.459C373.124 383.352 373.047 384.289 373.162 385.213V411.929C373.162 411.929 373.026 415.491 375.77 415.491C379.054 415.903 382.377 415.903 385.662 415.491C385.662 415.491 387.859 415.076 387.859 411.789V385.483C388.026 384.565 387.992 383.622 387.758 382.719C387.523 381.816 387.095 380.974 386.502 380.253C385.801 379.352 385.347 378.284 385.187 377.155L383.003 361.098C382.979 360.917 382.886 360.753 382.744 360.638C382.602 360.524 382.422 360.467 382.239 360.48V360.48Z" fill="white"/>
<path d="M380.706 416.25C379.046 416.25 377.388 416.147 375.741 415.942C375.373 415.951 375.007 415.883 374.666 415.744C374.326 415.605 374.018 415.397 373.761 415.134C372.645 413.977 372.707 411.996 372.71 411.912L372.71 385.24C372.593 384.259 372.678 383.265 372.96 382.319C373.241 381.372 373.713 380.492 374.347 379.734C375.019 378.901 375.453 377.902 375.603 376.844L377.704 361.119C377.745 360.817 377.903 360.542 378.143 360.354C378.384 360.165 378.688 360.077 378.993 360.109C380.06 360.165 381.131 360.139 382.194 360.032L382.207 360.031C382.504 360.009 382.797 360.101 383.029 360.288C383.26 360.475 383.411 360.743 383.451 361.037L385.635 377.094C385.785 378.145 386.207 379.138 386.859 379.976C387.488 380.742 387.943 381.634 388.193 382.591C388.444 383.549 388.484 384.549 388.311 385.523V411.789C388.311 415.408 385.771 415.93 385.746 415.934C384.074 416.145 382.391 416.25 380.706 416.25V416.25ZM378.882 361.005C378.815 361.002 378.749 361.024 378.697 361.066C378.645 361.109 378.611 361.17 378.601 361.236L376.498 376.967C376.326 378.19 375.824 379.344 375.046 380.306C374.487 380.974 374.071 381.749 373.824 382.583C373.577 383.418 373.505 384.294 373.61 385.157L373.614 385.213V411.929C373.613 411.962 373.565 413.633 374.415 414.511C374.59 414.689 374.802 414.829 375.036 414.92C375.269 415.011 375.52 415.052 375.77 415.041L375.827 415.044C379.073 415.45 382.358 415.45 385.605 415.044C385.648 415.033 387.407 414.633 387.407 411.789L387.414 385.402C387.57 384.549 387.539 383.672 387.321 382.832C387.103 381.992 386.705 381.209 386.153 380.538C385.4 379.573 384.912 378.429 384.739 377.218L382.555 361.158C382.546 361.093 382.512 361.033 382.46 360.99C382.409 360.948 382.343 360.926 382.277 360.93C381.161 361.041 380.039 361.067 378.919 361.007C378.907 361.006 378.895 361.005 378.882 361.005H378.882Z" fill="#3F3D56"/>
<path d="M378.921 385.691H382.253C383.578 385.691 384.848 386.216 385.785 387.15C386.722 388.084 387.248 389.352 387.248 390.673V403.177C387.248 404.498 386.722 405.766 385.785 406.7C384.848 407.635 383.578 408.16 382.253 408.16H378.921C377.596 408.16 376.326 407.635 375.389 406.7C374.452 405.766 373.926 404.498 373.926 403.177V390.673C373.926 390.019 374.055 389.371 374.306 388.766C374.557 388.162 374.925 387.613 375.389 387.15C375.853 386.687 376.403 386.32 377.009 386.07C377.615 385.82 378.265 385.691 378.921 385.691V385.691Z" fill="#E22FFF"/>
<path d="M317.667 615.344H328.53L333.697 573.554L317.665 573.554L317.667 615.344Z" fill="#9F616A"/>
<path d="M314.896 611.807L336.289 611.806H336.289C339.905 611.806 343.372 613.239 345.929 615.788C348.486 618.338 349.922 621.797 349.922 625.403V625.845L314.897 625.846L314.896 611.807Z" fill="#2F2E41"/>
<path d="M310.838 466.08C310.838 466.08 306.13 471.388 313.926 492.078L312.553 605.528L337.815 605.036L343.368 549.696L353.478 468.94L310.838 466.08Z" fill="#2F2E41"/>
<path d="M362.142 481.765L361.865 481.723C329.548 476.807 305.161 472.094 304.918 472.047L304.615 471.988L313.087 451.436C313.02 449.289 311.186 388.983 314.697 371.656C318.095 354.883 334.114 352.134 335.94 351.876L337.773 345.818L360.93 357.837L364.968 371.701L365.789 409.699L362.142 481.765Z" fill="#3F3D56"/>
<path d="M376.089 403.557C375.046 403.557 374.014 403.772 373.059 404.189C372.104 404.606 371.245 405.215 370.537 405.979H331.614L317.357 409.006L319.698 427.014L370.415 416.135C371.255 417.08 372.319 417.801 373.509 418.232C374.7 418.662 375.98 418.788 377.233 418.598C378.485 418.408 379.669 417.908 380.678 417.144C381.687 416.38 382.488 415.376 383.007 414.224C383.527 413.072 383.749 411.808 383.653 410.549C383.558 409.289 383.147 408.073 382.459 407.012C381.771 405.952 380.827 405.08 379.715 404.476C378.602 403.873 377.355 403.557 376.089 403.557H376.089Z" fill="#9F616A"/>
<path d="M376.426 339.011C381.396 329.944 378.055 318.575 368.964 313.619C359.874 308.662 348.476 311.995 343.507 321.062C338.537 330.129 341.878 341.497 350.969 346.454C360.059 351.41 371.457 348.078 376.426 339.011Z" fill="#9F616A"/>
<path d="M342.324 315.078L341.414 313.253L345.99 310.985C345.99 310.985 351.038 302.793 360.173 305.095C369.307 307.397 373.417 308.775 373.417 308.775L377.981 311.066L375.691 313.339L379.8 314.717L377.055 316.078L380.249 317.909L378.53 327.297C378.53 327.297 375.673 320.177 370.182 322.898C364.691 325.619 354.647 321.491 354.647 321.491L345.921 338.335C345.921 338.335 344.121 332.431 340.911 334.005C340.911 334.005 332.711 320.98 342.324 315.078Z" fill="#2F2E41"/>
<path d="M319.947 430.389L315.496 417.183L314.419 373.162L316.316 366.916C316.999 364.668 318.129 362.58 319.64 360.779C321.151 358.977 323.011 357.498 325.109 356.43C327.206 355.363 329.498 354.729 331.848 354.566C334.197 354.403 336.555 354.715 338.781 355.483C341.006 356.251 343.053 357.459 344.799 359.035C346.546 360.611 347.955 362.523 348.942 364.655C349.93 366.787 350.476 369.096 350.548 371.444C350.619 373.792 350.215 376.13 349.359 378.318L339.193 404.3L339.71 405.3L361.733 405.122L369.556 419.167L319.947 430.389Z" fill="#3F3D56"/>
<path d="M540.293 424.963C541.115 424.411 541.806 423.686 542.316 422.839C542.827 421.991 543.145 421.043 543.248 420.06C543.352 419.077 543.237 418.083 542.914 417.149C542.591 416.215 542.066 415.363 541.376 414.653L552.232 393.205L539.798 394.644L531.396 414.79C530.276 416.024 529.65 417.625 529.635 419.289C529.62 420.953 530.218 422.564 531.314 423.818C532.411 425.072 533.931 425.881 535.586 426.092C537.241 426.303 538.916 425.902 540.293 424.963V424.963Z" fill="#FFB7B7"/>
<path d="M627.354 576.885L617.571 576.885L612.917 539.246L627.356 539.247L627.354 576.885Z" fill="#FFB7B7"/>
<path d="M629.849 586.344L598.304 586.343V585.945C598.304 582.697 599.597 579.582 601.9 577.285C604.203 574.989 607.326 573.698 610.582 573.698H610.583L629.85 573.699L629.849 586.344Z" fill="#2F2E41"/>
<path d="M573.888 576.885L564.105 576.885L559.45 539.246L573.89 539.247L573.888 576.885Z" fill="#FFB7B7"/>
<path d="M573.989 586.344L542.444 586.343V585.945C542.444 582.697 543.738 579.582 546.04 577.285C548.343 574.989 551.466 573.698 554.722 573.698H554.723L573.99 573.699L573.989 586.344Z" fill="#2F2E41"/>
<path d="M573.086 417.919L563.51 439.923L555.611 566.397L575.561 565.602L581.01 505.31L597.818 451.612L607.481 511.477L611.472 564.009L627.979 564.722L634.557 417.919H573.086Z" fill="#2F2E41"/>
<path d="M620.954 309.34L593.2 310.033L576.905 318.376L576.011 379.932L565.848 422.431C565.848 422.431 629.346 426.79 638.124 420.423L627.75 371.87L641.663 319.399L620.954 309.34Z" fill="#E22FFF"/>
<path d="M581.191 319.397L578.607 317.656C578.607 317.656 567.903 320.856 564.739 335.092C564.739 335.092 562.318 342.235 561.256 347.145C560.037 352.778 533.133 404.513 533.133 404.513L549.241 409.123L578.773 361.487L581.191 319.397Z" fill="#E22FFF"/>
<path d="M641.228 432.856C640.591 432.1 640.128 431.213 639.871 430.258C639.615 429.303 639.571 428.304 639.744 427.331C639.916 426.357 640.301 425.434 640.87 424.625C641.439 423.816 642.179 423.141 643.038 422.648L638.533 399.046L650.087 403.849L652.594 425.525C653.328 427.019 653.488 428.73 653.042 430.334C652.597 431.937 651.577 433.322 650.176 434.226C648.775 435.13 647.09 435.489 645.441 435.237C643.792 434.984 642.293 434.137 641.228 432.856V432.856Z" fill="#FFB7B7"/>
<path d="M637.487 320.135L640.452 319.172C640.452 319.172 649.856 325.192 648.961 339.746C648.961 339.746 649.314 347.278 648.977 352.29C648.591 358.039 653.765 415.169 653.765 415.169H637.007L629.825 363.433L637.487 320.135Z" fill="#E22FFF"/>
<path d="M627.767 283.515C627.767 287.311 626.639 291.021 624.525 294.177C622.41 297.332 619.406 299.792 615.89 301.244C612.374 302.697 608.506 303.077 604.774 302.336C601.042 301.596 597.613 299.768 594.923 297.085C592.232 294.401 590.4 290.981 589.657 287.259C588.915 283.536 589.296 279.678 590.752 276.171C592.208 272.665 594.674 269.668 597.838 267.559C601.002 265.451 604.722 264.325 608.527 264.325V264.325C613.617 264.312 618.504 266.317 622.112 269.898C625.72 273.479 627.754 278.343 627.767 283.42C627.767 283.451 627.767 283.483 627.767 283.515Z" fill="#FFB7B7"/>
<path d="M589.351 257.739C591.605 252.905 595.967 253.861 599.781 255.5C604.612 254.431 609.206 251.231 614.411 253.124C619.538 260.561 636.75 258.373 633.088 270.481C633.084 273.382 638.562 271.693 637.606 276.445C640.508 285.59 627.13 302.908 619.451 299.261C621.35 295.789 625.689 287.904 619.108 287.122C604.952 300.259 617.648 262.105 599.861 273.201C593.972 278.576 585.909 263.116 589.351 257.739Z" fill="#2F2E41"/>
<path d="M644.597 434.77C645.513 434.954 646.459 434.935 647.367 434.715C648.275 434.495 649.124 434.078 649.854 433.496C650.583 432.913 651.176 432.178 651.59 431.342C652.004 430.506 652.229 429.589 652.249 428.657L700.558 383.305L689.689 374.656L645.538 422.071C643.966 422.14 642.474 422.782 641.345 423.876C640.216 424.969 639.528 426.438 639.412 428.003C639.296 429.569 639.76 431.122 640.715 432.369C641.671 433.616 643.052 434.471 644.597 434.77V434.77Z" fill="#9F616A"/>
<path d="M693.713 390.636L684.314 379.65C684.047 379.337 683.85 378.971 683.738 378.575C683.625 378.18 683.599 377.765 683.662 377.359C683.724 376.953 683.874 376.565 684.1 376.222C684.327 375.879 684.625 375.588 684.974 375.37L697.21 367.73C698.821 366.374 700.905 365.711 703.006 365.886C705.107 366.061 707.052 367.059 708.416 368.663C709.779 370.266 710.45 372.343 710.28 374.439C710.11 376.535 709.114 378.478 707.51 379.842L698.054 390.659C697.783 390.969 697.449 391.217 697.073 391.386C696.698 391.555 696.29 391.641 695.878 391.639C695.466 391.637 695.059 391.546 694.686 391.373C694.312 391.2 693.98 390.948 693.713 390.636V390.636Z" fill="#CBCBCB"/>
<path d="M668.44 614.426L656.628 614.426L651.008 568.985L668.441 568.985L668.44 614.426Z" fill="#9F616A"/>
<path d="M671.452 625.846L633.366 625.845V625.364C633.366 621.443 634.928 617.683 637.708 614.91C640.488 612.137 644.259 610.579 648.19 610.579H648.191L671.452 610.58L671.452 625.846Z" fill="#2F2E41"/>
<path d="M762.856 614.426L751.045 614.426L745.426 568.985L762.859 568.985L762.856 614.426Z" fill="#9F616A"/>
<path d="M765.869 625.846L727.783 625.845V625.364C727.783 621.443 729.345 617.682 732.125 614.91C734.905 612.137 738.676 610.579 742.607 610.579H742.608L765.869 610.58L765.869 625.846Z" fill="#2F2E41"/>
<path d="M731.085 414.723L742.991 370.849L727.545 362.189H705.986L697.6 371.137C697.6 371.137 683.591 380.859 686.981 391.631L692.452 416.167L684.085 455.134L641.932 513.442L631.953 570.715L671.233 580.986L713.709 497.566L734.303 589.934L772.615 588.012L759.413 476.016C759.413 476.016 755.65 441.898 735.923 420.595L731.085 414.723Z" fill="#2F2E41"/>
<path d="M755.673 453.543C756.337 452.887 756.849 452.094 757.172 451.219C757.496 450.344 757.623 449.409 757.545 448.48C757.466 447.551 757.185 446.651 756.72 445.842C756.255 445.033 755.618 444.336 754.854 443.799L745.616 381.638L732.357 385.813L745.63 445.681C744.811 447.022 744.513 448.615 744.794 450.16C745.074 451.704 745.912 453.093 747.15 454.062C748.388 455.031 749.94 455.513 751.511 455.418C753.081 455.322 754.563 454.655 755.673 453.543V453.543Z" fill="#9F616A"/>
<path d="M747.899 391.393L733.515 393.048C733.106 393.095 732.691 393.053 732.3 392.926C731.908 392.799 731.548 392.589 731.245 392.311C730.942 392.032 730.703 391.692 730.543 391.313C730.384 390.934 730.308 390.526 730.322 390.115L730.787 375.724C730.558 373.634 731.169 371.539 732.486 369.898C733.803 368.256 735.719 367.203 737.813 366.968C739.908 366.734 742.01 367.337 743.659 368.646C745.309 369.955 746.37 371.863 746.612 373.951L750.34 387.813C750.447 388.21 750.466 388.625 750.398 389.03C750.329 389.435 750.173 389.821 749.942 390.16C749.71 390.5 749.408 390.786 749.055 390.999C748.703 391.212 748.308 391.346 747.899 391.393V391.393Z" fill="#CBCBCB"/>
<path d="M692.656 349.712V331.226C692.656 324.656 695.272 318.355 699.93 313.709C704.587 309.064 710.905 306.454 717.491 306.454C724.078 306.454 730.395 309.064 735.053 313.709C739.711 318.355 742.327 324.656 742.327 331.226V349.712C742.326 350.594 741.974 351.44 741.349 352.064C740.724 352.687 739.876 353.038 738.991 353.039H695.992C695.107 353.038 694.259 352.687 693.634 352.064C693.008 351.44 692.657 350.594 692.656 349.712V349.712Z" fill="#2F2E41"/>
<path d="M721.122 350.384C729.946 345.572 733.189 334.537 728.365 325.736C723.542 316.935 712.478 313.7 703.654 318.511C694.83 323.323 691.587 334.358 696.411 343.159C701.234 351.96 712.298 355.195 721.122 350.384Z" fill="#9F616A"/>
<path d="M686.78 332.705C686.786 327.509 688.858 322.529 692.541 318.855C696.224 315.181 701.218 313.115 706.426 313.109H710.133C715.342 313.115 720.336 315.181 724.019 318.855C727.702 322.529 729.774 327.509 729.779 332.705V333.074H721.946L719.274 325.612L718.739 333.074H714.691L713.343 329.309L713.073 333.074H686.78V332.705Z" fill="#2F2E41"/>
<path d="M710.596 355.118C710.228 354.621 710.009 354.031 709.962 353.415C709.916 352.8 710.045 352.183 710.335 351.638C714.263 344.185 719.763 330.415 712.463 321.923L711.938 321.313H733.132V353.05L713.879 356.438C713.684 356.473 713.486 356.49 713.288 356.49C712.763 356.49 712.245 356.366 711.777 356.127C711.309 355.889 710.904 355.543 710.596 355.118V355.118Z" fill="#2F2E41"/>
<path d="M515.797 372.018C515.528 372.294 515.282 372.59 515.06 372.904L480.527 372.061L476.499 364.719L464.594 369.335L470.46 383.024C470.934 384.13 471.754 385.053 472.799 385.654C473.843 386.255 475.055 386.502 476.252 386.358L515.267 381.657C516.187 382.819 517.44 383.674 518.86 384.109C520.279 384.543 521.798 384.536 523.213 384.089C524.628 383.641 525.874 382.775 526.783 381.604C527.693 380.434 528.223 379.015 528.305 377.536C528.386 376.057 528.014 374.589 527.238 373.326C526.462 372.064 525.32 371.067 523.962 370.468C522.604 369.868 521.095 369.696 519.637 369.973C518.178 370.25 516.839 370.963 515.797 372.018H515.797Z" fill="#FFB7B7"/>
<path d="M403.227 581.193H414.581L419.983 537.51L403.225 537.511L403.227 581.193Z" fill="#FFB7B7"/>
<path d="M400.331 577.496L422.692 577.495H422.693C426.472 577.495 430.096 578.992 432.769 581.658C435.441 584.323 436.942 587.938 436.943 591.708V592.17L400.331 592.171L400.331 577.496Z" fill="#2F2E41"/>
<path d="M506.329 580.941L516.771 576.492L504.533 534.204L489.123 540.771L506.329 580.941Z" fill="#FFB7B7"/>
<path d="M502.209 578.676L522.772 569.913L522.773 569.913C526.249 568.433 530.172 568.39 533.679 569.794C537.186 571.198 539.991 573.934 541.475 577.4L541.657 577.825L507.99 592.171L502.209 578.676Z" fill="#2F2E41"/>
<path d="M458.417 381.481L459.238 394.752L435.238 397.313L410.125 399.994L417.517 379.843L458.417 381.481Z" fill="#FFB7B7"/>
<path d="M459.26 386.243C458.988 386.136 431.88 375.619 415.229 384.218L414.82 384.43L411.498 368.122L409.605 333.061L421.922 327.256L425.313 319.68L448.411 318.317L453.157 324.809L469.318 330.092L459.659 386.4L459.26 386.243Z" fill="#E4E4E4"/>
<path d="M460.109 354.595L462.966 332.205L469.472 330.23L469.581 330.27C469.731 330.325 473.267 331.675 474.235 336.557C475.163 341.243 482.16 370.403 482.23 370.698L482.3 370.989L465.862 377.549L460.109 354.595Z" fill="#E4E4E4"/>
<path d="M497.872 573.264L519.754 568.787L484.781 472.534L472.812 439.704C472.812 439.704 465.22 413.381 461.79 403.194L459.72 389.526L410.721 394.935C410.721 394.935 397.036 414.981 401.193 447.656L399.313 570.466L421.194 571.585L439.522 447.725L471.689 515.624C471.689 515.624 481.828 544.599 489.082 550.88L497.872 573.264Z" fill="#2F2E41"/>
<path d="M430.371 399.493C429.985 399.484 429.6 399.505 429.218 399.557L406.359 373.727L409.018 365.788L397.531 360.22L391.454 373.817C390.963 374.916 390.843 376.143 391.111 377.316C391.379 378.489 392.021 379.543 392.941 380.32L422.924 405.66C422.695 407.123 422.919 408.621 423.564 409.954C424.21 411.288 425.248 412.394 426.539 413.125C427.83 413.856 429.314 414.177 430.793 414.047C432.272 413.916 433.676 413.339 434.818 412.394C435.96 411.448 436.787 410.177 437.188 408.751C437.589 407.325 437.545 405.812 437.062 404.411C436.579 403.011 435.68 401.79 434.485 400.912C433.29 400.033 431.855 399.539 430.371 399.493V399.493Z" fill="#FFB7B7"/>
<path d="M395.461 364.046L404.398 338.657C405.402 335.665 406.66 333.846 408.138 333.253C408.429 333.122 408.745 333.053 409.064 333.05C409.383 333.047 409.699 333.111 409.993 333.236L414 338.285L417.719 353.869L408.184 376.241L395.461 364.046Z" fill="#E4E4E4"/>
<path d="M454.613 313.063H415.381C414.574 313.062 413.801 312.742 413.23 312.173C412.659 311.603 412.338 310.832 412.337 310.027V293.16C412.337 287.166 414.725 281.418 418.974 277.179C423.224 272.94 428.987 270.559 434.997 270.559C441.007 270.559 446.77 272.94 451.02 277.179C455.269 281.418 457.657 287.166 457.657 293.16V310.027C457.656 310.832 457.335 311.603 456.764 312.173C456.193 312.742 455.42 313.062 454.613 313.063V313.063Z" fill="#2F2E41"/>
<path d="M439.653 312.67C448.828 312.67 456.266 305.251 456.266 296.1C456.266 286.948 448.828 279.53 439.653 279.53C430.478 279.53 423.04 286.948 423.04 296.1C423.04 305.251 430.478 312.67 439.653 312.67Z" fill="#FFB7B7"/>
<path d="M463.017 294.847H439.028L438.782 291.412L437.552 294.847H433.858L433.371 288.038L430.933 294.847H423.786V294.51C423.791 289.77 425.681 285.225 429.042 281.874C432.402 278.522 436.958 276.637 441.71 276.631H445.092C449.845 276.637 454.401 278.522 457.761 281.874C461.122 285.225 463.012 289.77 463.017 294.51L463.017 294.847Z" fill="#2F2E41"/>
<path d="M438.832 316.211C438.651 316.211 438.471 316.195 438.293 316.164L420.727 313.072V284.116H440.064L439.585 284.673C432.924 292.421 437.943 304.984 441.526 311.784C441.791 312.282 441.908 312.844 441.866 313.406C441.824 313.968 441.624 314.506 441.288 314.959C441.007 315.347 440.638 315.662 440.211 315.88C439.784 316.098 439.311 316.211 438.832 316.211V316.211Z" fill="#2F2E41"/>
<path d="M649.251 385.813C648.156 385.923 647.054 385.949 645.955 385.89C645.768 385.869 645.58 385.923 645.432 386.039C645.284 386.156 645.188 386.325 645.164 386.512L643.062 402.24C642.9 403.381 642.431 404.458 641.706 405.355C641.107 406.07 640.662 406.899 640.399 407.792C640.135 408.684 640.058 409.622 640.173 410.545V437.262C640.173 437.262 640.037 440.824 642.782 440.824C646.066 441.236 649.389 441.236 652.673 440.824C652.673 440.824 654.87 440.409 654.87 437.122V410.816C655.038 409.898 655.003 408.955 654.769 408.052C654.535 407.149 654.107 406.307 653.514 405.585C652.812 404.685 652.359 403.617 652.198 402.488L650.015 386.431C649.99 386.25 649.897 386.086 649.755 385.971C649.613 385.856 649.433 385.8 649.251 385.813V385.813Z" fill="white"/>
<path d="M647.718 441.583C646.058 441.583 644.4 441.48 642.752 441.275C642.384 441.283 642.019 441.216 641.678 441.077C641.337 440.938 641.029 440.73 640.773 440.466C639.656 439.31 639.718 437.328 639.721 437.244L639.721 410.573C639.604 409.592 639.69 408.598 639.971 407.651C640.253 406.705 640.725 405.825 641.359 405.066C642.031 404.233 642.464 403.235 642.614 402.177L644.716 386.452C644.757 386.15 644.914 385.875 645.155 385.686C645.395 385.498 645.7 385.41 646.004 385.441C647.072 385.497 648.142 385.472 649.206 385.364L649.218 385.363C649.515 385.342 649.809 385.434 650.04 385.621C650.271 385.808 650.422 386.075 650.463 386.369L652.646 402.427C652.796 403.477 653.218 404.47 653.871 405.308C654.499 406.074 654.954 406.966 655.205 407.924C655.455 408.881 655.495 409.882 655.322 410.856V437.122C655.322 440.741 652.783 441.262 652.757 441.267C651.086 441.477 649.402 441.583 647.718 441.583V441.583ZM645.894 386.338C645.826 386.335 645.76 386.356 645.708 386.399C645.656 386.442 645.622 386.502 645.612 386.569L643.51 402.299C643.337 403.523 642.835 404.677 642.057 405.638C641.498 406.306 641.083 407.081 640.836 407.916C640.589 408.75 640.516 409.626 640.622 410.49L640.625 410.545V437.262C640.624 437.295 640.576 438.966 641.426 439.843C641.602 440.022 641.814 440.161 642.047 440.252C642.281 440.344 642.531 440.385 642.782 440.373L642.838 440.377C646.085 440.783 649.37 440.783 652.617 440.377C652.66 440.366 654.418 439.966 654.418 437.122L654.425 410.735C654.582 409.882 654.55 409.004 654.332 408.164C654.115 407.324 653.716 406.542 653.164 405.871C652.411 404.906 651.924 403.761 651.751 402.551L649.567 386.491C649.557 386.425 649.523 386.365 649.472 386.323C649.42 386.281 649.355 386.259 649.288 386.262C648.173 386.374 647.05 386.4 645.931 386.34C645.919 386.339 645.906 386.338 645.894 386.338V386.338Z" fill="#3F3D56"/>
<path d="M645.933 411.023H649.264C650.589 411.023 651.86 411.548 652.797 412.483C653.734 413.417 654.26 414.684 654.26 416.006V428.51C654.26 429.831 653.733 431.098 652.797 432.033C651.86 432.967 650.589 433.492 649.264 433.492H645.932C644.608 433.492 643.337 432.967 642.4 432.033C641.463 431.098 640.937 429.831 640.937 428.51V416.006C640.937 414.684 641.463 413.417 642.4 412.483C643.337 411.548 644.608 411.023 645.933 411.023V411.023Z" fill="#E22FFF"/>
<path d="M536.186 364.15C535.091 364.26 533.989 364.286 532.89 364.227C532.703 364.207 532.515 364.26 532.367 364.377C532.219 364.493 532.123 364.663 532.099 364.849L529.997 380.577C529.835 381.719 529.367 382.796 528.641 383.693C528.042 384.407 527.598 385.236 527.334 386.129C527.07 387.022 526.994 387.959 527.108 388.883V415.599C527.108 415.599 526.973 419.162 529.717 419.162C533.001 419.573 536.324 419.573 539.608 419.162C539.608 419.162 541.805 418.747 541.805 415.46V389.153C541.973 388.236 541.939 387.292 541.704 386.389C541.47 385.486 541.042 384.645 540.449 383.923C539.748 383.022 539.294 381.954 539.134 380.825L536.95 364.768C536.925 364.588 536.833 364.423 536.691 364.309C536.549 364.194 536.368 364.137 536.186 364.15V364.15Z" fill="white"/>
<path d="M534.653 419.92C532.993 419.92 531.335 419.818 529.688 419.612C529.32 419.621 528.954 419.554 528.613 419.415C528.273 419.276 527.964 419.068 527.708 418.804C526.591 417.647 526.653 415.666 526.657 415.582L526.656 388.91C526.54 387.93 526.625 386.936 526.906 385.989C527.188 385.042 527.66 384.163 528.294 383.404C528.966 382.571 529.4 381.573 529.549 380.514L531.651 364.79C531.692 364.487 531.85 364.213 532.09 364.024C532.331 363.835 532.635 363.747 532.94 363.779C534.007 363.835 535.077 363.809 536.141 363.702L536.154 363.701C536.45 363.679 536.744 363.771 536.975 363.958C537.207 364.145 537.358 364.413 537.398 364.707L539.582 380.765C539.732 381.815 540.154 382.808 540.806 383.646C541.435 384.412 541.89 385.304 542.14 386.262C542.391 387.219 542.431 388.219 542.258 389.194V415.46C542.258 419.078 539.718 419.6 539.692 419.605C538.021 419.815 536.338 419.92 534.653 419.92V419.92ZM532.829 364.676C532.762 364.672 532.696 364.694 532.644 364.737C532.592 364.779 532.558 364.84 532.548 364.906L530.445 380.637C530.272 381.86 529.77 383.014 528.993 383.976C528.434 384.644 528.018 385.419 527.771 386.253C527.524 387.088 527.451 387.964 527.557 388.827L527.56 388.883V415.599C527.56 415.633 527.512 417.303 528.361 418.181C528.537 418.359 528.749 418.499 528.982 418.59C529.216 418.681 529.466 418.723 529.717 418.711L529.773 418.714C533.02 419.121 536.305 419.121 539.552 418.714C539.595 418.704 541.353 418.304 541.353 415.46L541.361 389.073C541.517 388.219 541.486 387.342 541.268 386.502C541.05 385.662 540.651 384.879 540.1 384.209C539.346 383.244 538.859 382.099 538.686 380.888L536.502 364.829C536.493 364.763 536.459 364.703 536.407 364.661C536.356 364.618 536.29 364.597 536.224 364.6C535.108 364.711 533.986 364.737 532.866 364.678C532.854 364.676 532.841 364.676 532.829 364.676V364.676Z" fill="#3F3D56"/>
<path d="M532.868 389.361H536.2C537.525 389.361 538.795 389.886 539.732 390.82C540.669 391.755 541.195 393.022 541.195 394.343V406.847C541.195 408.169 540.669 409.436 539.732 410.37C538.795 411.305 537.525 411.83 536.2 411.83H532.868C531.543 411.83 530.272 411.305 529.336 410.37C528.399 409.436 527.872 408.169 527.872 406.847V394.343C527.872 393.022 528.399 391.755 529.336 390.82C530.272 389.886 531.543 389.361 532.868 389.361V389.361Z" fill="#E22FFF"/>
<path d="M517.023 341.214C515.928 341.324 514.826 341.349 513.727 341.29C513.54 341.27 513.352 341.324 513.204 341.44C513.056 341.556 512.96 341.726 512.936 341.913L510.834 357.64C510.672 358.782 510.203 359.859 509.477 360.756C508.879 361.47 508.434 362.3 508.171 363.192C507.907 364.085 507.83 365.022 507.945 365.946V392.663C507.945 392.663 507.809 396.225 510.553 396.225C513.838 396.636 517.161 396.636 520.445 396.225C520.445 396.225 522.642 395.81 522.642 392.523V366.217C522.81 365.299 522.775 364.356 522.541 363.453C522.307 362.549 521.878 361.708 521.286 360.986C520.584 360.085 520.131 359.018 519.97 357.888L517.787 341.831C517.762 341.651 517.669 341.487 517.527 341.372C517.385 341.257 517.205 341.201 517.023 341.214V341.214Z" fill="white"/>
<path d="M515.49 396.984C513.83 396.984 512.171 396.881 510.524 396.676C510.156 396.684 509.79 396.617 509.45 396.478C509.109 396.339 508.801 396.131 508.545 395.867C507.428 394.71 507.49 392.729 507.493 392.645L507.493 365.974C507.376 364.993 507.461 363.999 507.743 363.052C508.025 362.105 508.497 361.226 509.131 360.467C509.802 359.634 510.236 358.636 510.386 357.577L512.488 341.853C512.529 341.55 512.686 341.276 512.927 341.087C513.167 340.898 513.472 340.811 513.776 340.842C514.844 340.898 515.914 340.872 516.977 340.765L516.99 340.764C517.287 340.742 517.581 340.835 517.812 341.021C518.043 341.208 518.194 341.476 518.235 341.77L520.418 357.828C520.568 358.878 520.99 359.871 521.643 360.709C522.271 361.475 522.726 362.367 522.977 363.325C523.227 364.282 523.267 365.282 523.094 366.257V392.523C523.094 396.141 520.555 396.663 520.529 396.668C518.857 396.878 517.174 396.983 515.49 396.984V396.984ZM513.666 341.739C513.598 341.735 513.532 341.757 513.48 341.8C513.428 341.843 513.394 341.903 513.384 341.969L511.282 357.7C511.109 358.923 510.607 360.077 509.829 361.039C509.27 361.707 508.855 362.482 508.608 363.317C508.361 364.151 508.288 365.027 508.394 365.891L508.397 365.946V392.662C508.396 392.696 508.348 394.366 509.198 395.244C509.374 395.422 509.585 395.562 509.819 395.653C510.053 395.745 510.303 395.786 510.553 395.774L510.61 395.777C513.857 396.184 517.142 396.184 520.388 395.777C520.431 395.767 522.19 395.367 522.19 392.523L522.197 366.136C522.354 365.282 522.322 364.405 522.104 363.565C521.886 362.725 521.488 361.943 520.936 361.272C520.183 360.307 519.696 359.162 519.523 357.952L517.339 341.892C517.329 341.826 517.295 341.766 517.244 341.724C517.192 341.681 517.127 341.66 517.06 341.663C515.945 341.774 514.822 341.8 513.703 341.741C513.69 341.739 513.678 341.739 513.666 341.739V341.739Z" fill="#3F3D56"/>
<path d="M513.704 366.424H517.036C518.361 366.424 519.632 366.949 520.569 367.883C521.505 368.818 522.032 370.085 522.032 371.407V383.91C522.032 385.232 521.505 386.499 520.569 387.434C519.632 388.368 518.361 388.893 517.036 388.893H513.704C512.379 388.893 511.109 388.368 510.172 387.434C509.235 386.499 508.709 385.232 508.709 383.91V371.407C508.709 370.085 509.235 368.818 510.172 367.883C511.109 366.949 512.379 366.424 513.704 366.424Z" fill="#E22FFF"/>
<path d="M340.507 264.006C349.327 264.006 356.477 256.874 356.477 248.077C356.477 239.28 349.327 232.149 340.507 232.149C331.687 232.149 324.537 239.28 324.537 248.077C324.537 256.874 331.687 264.006 340.507 264.006Z" fill="#2A2B2F"/>
<path d="M708.446 250.626C717.266 250.626 724.416 243.495 724.416 234.698C724.416 225.901 717.266 218.769 708.446 218.769C699.626 218.769 692.477 225.901 692.477 234.698C692.477 243.495 699.626 250.626 708.446 250.626Z" fill="#2A2B2F"/>
<path d="M525.754 290.765C532.104 290.765 537.252 285.631 537.252 279.297C537.252 272.963 532.104 267.828 525.754 267.828C519.404 267.828 514.256 272.963 514.256 279.297C514.256 285.631 519.404 290.765 525.754 290.765Z" fill="#2A2B2F"/>
</g>
<defs>
<clipPath id="clip0_216_90">
<rect width="468" height="407.077" fill="white" transform="translate(304.615 218.769)"/>
</clipPath>
</defs>
</svg>
